# xmcd CD database file
#
# Track frame offsets:
#	150
#	19133
#	37641
#	57482
#	77724
#	99453
#	120371
#	136878
#	156798
#	177685
#	196203
#	210100
#	216991
#	234505
#	267913
#
# Disc length: 3839 seconds
#
# Revision: 4
# Processed by: cddbd v1.5.2PL0 Copyright (c) Steve Scherf et al.
# Submitted via: CDex 1.70beta2
#
DISCID=c40efd0f
DTITLE=Shania Twain - The Woman In Me
DYEAR=1995
DGENRE=
TTITLE0=Home Ain't Where His Heart Is
TTITLE1=Any Man Of Mine
TTITLE2=Whose Bed Have Your Boots Been Under
TTITLE3=I'm Outta Here
TTITLE4=The Woman In Me
TTITLE5=Is There Life After Love
TTITLE6=If It Don't Take Two
TTITLE7=You Win My Love
TTITLE8=Raining On Our Love
TTITLE9=Leaving Is The Only Way Out
TTITLE10=No One Needs To Know
TTITLE11=God Bless The Child
TTITLE12=You Win My Love (Remix)
TTITLE13=Medley
TTITLE14=I'm Outta Here (Remix)
EXTD=YEAR: 1995
EXTT0=
EXTT1=
EXTT2=
EXTT3=
EXTT4=
EXTT5=
EXTT6=
EXTT7=
EXTT8=
EXTT9=
EXTT10=
EXTT11=
EXTT12=
EXTT13=
EXTT14=
PLAYORDER=
